# xmcd
#
# Track frame offsets:
#	150
#	18357
#	32112
#	46467
#	70417
#	80350
#	98952
#	114515
#	129957
#	146250
#	158745
#	172960
#	192237
#
# Disc length: 2911 seconds
#
# Revision: 0
# Processed by: cddbd v1.5.1PL2 Copyright (c) Steve Scherf et al.
# Submitted via: audiograbber 1.83.01
#
DISCID=a40b5d0d
DTITLE=Pensacola Company - America here we come
DYEAR=1991
DGENRE=Country
TTITLE0=America, here we come
TTITLE1=Weit von zuhaus
TTITLE2=Bleib bei mir
TTITLE3=Rock'n Roll
TTITLE4=Unser Leben
TTITLE5=Bis zu den Sternen
TTITLE6=Im nächsten Leben
TTITLE7=Weißt Du noch
TTITLE8=Und schon wieder
TTITLE9=Weil ich Dich liebe
TTITLE10=Was wir mögen
TTITLE11=Kleine Country-Lady
TTITLE12=Die besten Grüße
EXTD=
EXTT0=
EXTT1=
EXTT2=
EXTT3=
EXTT4=
EXTT5=
EXTT6=
EXTT7=
EXTT8=
EXTT9=
EXTT10=
EXTT11=
EXTT12=
PLAYORDER=
